<svg xmlns="http://www.w3.org/2000/svg" xmlns:xlink="http://www.w3.org/1999/xlink" width="375" viewBox="0 0 375 375" height="375" version="1.0"><defs><g id="a"><path d="M 11.84375 -162.875 L 62.390625 -162.875 C 77.648438 -162.875 89.820312 -159.613281 98.90625 -153.09375 C 107.988281 -146.582031 112.53125 -136.023438 112.53125 -121.421875 C 112.53125 -105.097656 105.753906 -93.445312 92.203125 -86.46875 C 115.359375 -82.382812 126.9375 -68.695312 126.9375 -45.40625 C 126.9375 -31.71875 122.195312 -20.726562 112.71875 -12.4375 C 103.25 -4.144531 90.222656 0 73.640625 0 L 11.84375 0 Z M 48.953125 -99.109375 L 51.921875 -99.109375 C 60.210938 -99.109375 66.394531 -100.554688 70.46875 -103.453125 C 74.550781 -106.347656 76.59375 -111.082031 76.59375 -117.65625 C 76.59375 -128.71875 68.367188 -134.25 51.921875 -134.25 L 48.953125 -134.25 Z M 48.953125 -28.625 L 60.609375 -28.625 C 78.773438 -28.625 87.859375 -34.675781 87.859375 -46.78125 C 87.859375 -54.019531 85.585938 -59.21875 81.046875 -62.375 C 76.503906 -65.539062 69.691406 -67.125 60.609375 -67.125 L 48.953125 -67.125 Z M 48.953125 -28.625"/></g><g id="b"><path d="M 159.125 -91.203125 L 159.125 -55.875 C 154.90625 -36.519531 145.6875 -21.875 131.46875 -11.9375 C 117.257812 -2 101.40625 2.96875 83.90625 2.96875 C 61.925781 2.96875 43.203125 -5.253906 27.734375 -21.703125 C 12.273438 -38.160156 4.546875 -58.039062 4.546875 -81.34375 C 4.546875 -105.03125 12.113281 -125.03125 27.25 -141.34375 C 42.382812 -157.664062 61.269531 -165.828125 83.90625 -165.828125 C 110.363281 -165.828125 131.289062 -156.550781 146.6875 -138 L 122.40625 -111.34375 C 113.71875 -125.289062 101.609375 -132.265625 86.078125 -132.265625 C 74.628906 -132.265625 64.859375 -127.296875 56.765625 -117.359375 C 48.671875 -107.429688 44.625 -95.425781 44.625 -81.34375 C 44.625 -67.519531 48.671875 -55.703125 56.765625 -45.890625 C 64.859375 -36.085938 74.628906 -31.1875 86.078125 -31.1875 C 95.554688 -31.1875 103.816406 -34.050781 110.859375 -39.78125 C 117.898438 -45.507812 121.421875 -53.109375 121.421875 -62.578125 L 83.90625 -62.578125 L 83.90625 -91.203125 Z M 159.125 -91.203125"/></g></defs><path fill="#123D68" d="M 187.355469 367.464844 C 139.269531 367.464844 93.988281 348.75 60.011719 314.699219 C 25.960938 280.722656 7.246094 235.441406 7.246094 187.355469 C 7.246094 139.269531 25.960938 93.988281 60.011719 60.011719 C 93.988281 25.960938 139.269531 7.246094 187.355469 7.246094 C 235.441406 7.246094 280.722656 25.960938 314.699219 60.011719 C 348.75 94.0625 367.464844 139.269531 367.464844 187.355469 C 367.464844 235.441406 348.75 280.722656 314.699219 314.699219 C 280.722656 348.75 235.441406 367.464844 187.355469 367.464844 Z M 187.355469 18.042969 C 142.148438 18.042969 99.605469 35.679688 67.644531 67.644531 C 35.679688 99.605469 18.042969 142.148438 18.042969 187.355469 C 18.042969 232.5625 35.679688 275.105469 67.644531 307.070312 C 99.605469 339.03125 142.148438 356.667969 187.355469 356.667969 C 232.5625 356.667969 275.105469 339.03125 307.070312 307.070312 C 339.03125 275.105469 356.667969 232.5625 356.667969 187.355469 C 356.667969 142.148438 339.03125 99.605469 307.070312 67.644531 C 275.105469 35.679688 232.5625 18.042969 187.355469 18.042969 Z M 187.355469 18.042969"/><g fill="#123D68"><use x="39.938" y="272.854" xmlns:xlink="http://www.w3.org/1999/xlink" xlink:href="#a" xlink:type="simple" xlink:actuate="onLoad" xlink:show="embed"/></g><g fill="#F48637"><use x="171.41" y="272.854" xmlns:xlink="http://www.w3.org/1999/xlink" xlink:href="#b" xlink:type="simple" xlink:actuate="onLoad" xlink:show="embed"/></g></svg>